<svg width="100" height="100" viewBox="0 0 100 100" fill="none" xmlns="http://www.w3.org/2000/svg">
<rect width="100" height="100" fill="white"/>
<path d="M14.188 68V67.46L15.268 67.082C15.988 66.866 16.456 66.542 16.672 66.11C16.924 65.678 17.05 65.102 17.05 64.382V36.086C17.05 35.366 16.924 34.79 16.672 34.358C16.42 33.926 15.934 33.584 15.214 33.332L14.188 32.9V32.36H27.31C32.674 32.36 36.544 33.35 38.92 35.33C41.332 37.274 42.538 39.848 42.538 43.052C42.538 45.104 42.034 46.994 41.026 48.722C40.054 50.414 38.434 51.764 36.166 52.772C33.898 53.78 30.838 54.284 26.986 54.284H25.15V64.22C25.15 65.624 25.852 66.542 27.256 66.974L28.876 67.46V68H14.188ZM25.15 53.204H27.202C28.966 53.204 30.406 52.916 31.522 52.34C32.638 51.764 33.466 50.756 34.006 49.316C34.546 47.876 34.816 45.878 34.816 43.322C34.816 40.73 34.51 38.714 33.898 37.274C33.322 35.834 32.458 34.844 31.306 34.304C30.154 33.728 28.714 33.44 26.986 33.44H25.15V53.204Z" fill="black"/>
<path d="M48.9872 68.216L45.9092 35.816C45.8012 34.592 45.1532 33.728 43.9652 33.224L43.3172 32.9L43.4252 32.36H56.3312L56.2232 32.9L55.0352 33.332C53.8832 33.728 53.3432 34.574 53.4152 35.87L55.0352 59.846L64.9712 39.974L64.4852 35.924C64.3412 34.664 63.6752 33.8 62.4872 33.332L61.2992 32.9L61.4072 32.36H74.5292L74.4212 32.9L72.9632 33.44C71.7752 33.872 71.2712 34.718 71.4512 35.978L74.0972 59.954L84.8432 35.924C85.3472 34.7 84.9872 33.836 83.7632 33.332L82.6832 32.9L82.7912 32.36H90.7292L90.6212 32.9L89.3252 33.332C88.6052 33.584 88.0112 33.926 87.5432 34.358C87.0752 34.79 86.6792 35.348 86.3552 36.032L72.0992 68.216H68.2652L65.2952 42.836L52.7672 68.216H48.9872Z" fill="#2E5A88"/>
</svg>
